<svg width="55" height="65" viewBox="0 0 55 65" fill="none" xmlns="http://www.w3.org/2000/svg">
<path d="M16.0938 5.125V59.875H11.5312V5.125H4.6875V59.875H50.3125V5.125H16.0938ZM2.40625 0.5625H52.5938C53.2599 0.5625 53.8066 0.776177 54.234 1.20353C54.6613 1.63089 54.875 2.17763 54.875 2.84375V62.1562C54.875 62.8224 54.6613 63.3691 54.234 63.7965C53.8066 64.2238 53.2599 64.4375 52.5938 64.4375H2.40625C1.74013 64.4375 1.19339 64.2238 0.766032 63.7965C0.338677 63.3691 0.125 62.8224 0.125 62.1562V2.84375C0.125 2.17763 0.338677 1.63089 0.766032 1.20353C1.19339 0.776177 1.74013 0.5625 2.40625 0.5625ZM25.2188 14.25H38.9062C40.4271 14.25 41.1875 15.0104 41.1875 16.5312C41.1875 18.0521 40.4271 18.8125 38.9062 18.8125H25.2188C23.6979 18.8125 22.9375 18.0521 22.9375 16.5312C22.9375 15.0104 23.6979 14.25 25.2188 14.25ZM25.2188 27.9375H38.9062C40.4271 27.9375 41.1875 28.6979 41.1875 30.2188C41.1875 31.7396 40.4271 32.5 38.9062 32.5H25.2188C23.6979 32.5 22.9375 31.7396 22.9375 30.2188C22.9375 28.6979 23.6979 27.9375 25.2188 27.9375ZM25.2188 41.625H38.9062C40.4271 41.625 41.1875 42.3854 41.1875 43.9062C41.1875 45.4271 40.4271 46.1875 38.9062 46.1875H25.2188C23.6979 46.1875 22.9375 45.4271 22.9375 43.9062C22.9375 42.3854 23.6979 41.625 25.2188 41.625Z" fill="#2157F2"/>
</svg>
