<svg width="26" height="26" viewBox="0 0 26 26" fill="none" xmlns="http://www.w3.org/2000/svg">
<path d="M0 26L1.83763 19.327C0.701528 17.3683 0.10554 15.1502 0.111748 12.8826C0.111748 5.77709 5.92263 0 13.0559 0C16.52 0 19.7731 1.34078 22.213 3.77519C24.659 6.2096 26.0062 9.44724 26 12.8888C26 19.9943 20.1891 25.7714 13.0497 25.7714H13.0434C10.8768 25.7714 8.74737 25.2277 6.85386 24.202L0 26ZM7.1829 21.8726L7.57402 22.1074C9.2254 23.0836 11.1189 23.5965 13.0497 23.6027H13.0559C18.9847 23.6027 23.8147 18.8018 23.8147 12.895C23.8147 10.0342 22.6972 7.34648 20.6671 5.31987C18.637 3.29325 15.9303 2.18108 13.0559 2.18108C7.12702 2.1749 2.29704 6.97576 2.29704 12.8826C2.29704 14.903 2.86198 16.8741 3.94221 18.5794L4.19675 18.9872L3.11031 22.9354L7.1829 21.8726Z" fill="url(#paint0_linear_11_6316)"/>
<path fill-rule="evenodd" clip-rule="evenodd" d="M9.82129 7.49537C9.57917 6.95782 9.32464 6.94546 9.09493 6.93928C8.90869 6.93311 8.6914 6.93311 8.47411 6.93311C8.25682 6.93311 7.90917 7.01343 7.61117 7.33472C7.31318 7.65601 6.48128 8.43453 6.48128 10.0225C6.48128 11.6042 7.64221 13.1365 7.80363 13.3528C7.96504 13.569 10.0448 16.9241 13.3289 18.2154C16.0605 19.2905 16.6193 19.0743 17.2091 19.0187C17.7988 18.963 19.1212 18.2401 19.3943 17.4863C19.6613 16.7325 19.6613 16.0899 19.5806 15.954C19.4999 15.8181 19.2826 15.7378 18.9598 15.5771C18.6369 15.4165 17.0476 14.638 16.7497 14.5267C16.4517 14.4217 16.2344 14.3661 16.0233 14.6874C15.806 15.0087 15.1852 15.7316 14.9989 15.9478C14.8127 16.1641 14.6202 16.1888 14.2974 16.0282C13.9746 15.8675 12.9316 15.5277 11.6962 14.4279C10.7339 13.5752 10.082 12.5187 9.89579 12.1974C9.70954 11.8761 9.87717 11.7031 10.0386 11.5424C10.1814 11.4003 10.3614 11.1655 10.5228 10.9802C10.6842 10.7948 10.7401 10.6589 10.8456 10.4426C10.9512 10.2264 10.9015 10.041 10.8208 9.88035C10.7401 9.72588 10.1069 8.13178 9.82129 7.49537Z" fill="white"/>
<defs>
<linearGradient id="paint0_linear_11_6316" x1="13.0025" y1="25.9975" x2="13.0025" y2="0" gradientUnits="userSpaceOnUse">
<stop stop-color="#F9F9F9"/>
<stop offset="1" stop-color="white"/>
</linearGradient>
</defs>
</svg>
